<svg xmlns="http://www.w3.org/2000/svg" viewBox="0 0 82.72 79.72"><defs><style>.cls-1,.cls-2{stroke:#000;stroke-miterlimit:10;stroke-width:0.75px;}.cls-2{fill:#fff;}</style></defs><title>Asset 3</title><g id="Layer_2" data-name="Layer 2"><g id="Layer_4" data-name="Layer 4"><path class="cls-1" d="M6.41,63.83V26.69C6.41,22.6,9,20.05,13,20.05h15.8c.09-1.29.11-2.53.27-3.76a16.54,16.54,0,0,1,3.82-8.6C34.5,5.83,36.1,4,37.7,2.14A4.57,4.57,0,0,1,45,2.21l4.65,5.57a17.17,17.17,0,0,1,4,11c0,.4,0,.81,0,1.33h.88c5.12,0,10.24,0,15.36,0A6.05,6.05,0,0,1,76,25a8.77,8.77,0,0,1,.13,1.85q0,18,0,36.05v1h3.09c2.45,0,3.13.67,3.13,3.09,0,2,0,4,0,6A6.08,6.08,0,0,1,76,79.35H6.7A6.06,6.06,0,0,1,.38,73c0-2.28,0-4.55,0-6.83a2.12,2.12,0,0,1,2.35-2.35Zm22.5-40.5H28c-5,0-10,.06-15,0a3.18,3.18,0,0,0-3.35,3.33c.05,12.19,0,24.37,0,36.55V64H32.9A2,2,0,0,1,35,66.11v.75h12.8a1.57,1.57,0,0,0,0-.32c.1-2,.66-2.54,2.7-2.54h22.5c0-.3,0-.53,0-.77V26.68c0-2.16-1.12-3.28-3.27-3.28H53.9c0,1.4,0,2.71,0,4a1.05,1.05,0,0,0,.6,1.07A8.83,8.83,0,0,1,58.86,37c-.13,1.89-.37,3.76-.57,5.64a3.09,3.09,0,0,1-4.45,2.63c-1.35-.54-2.74-1-4.11-1.47a2.34,2.34,0,0,0-.52-.08c-.62,2-1.48,2.68-3.56,2.68H37.32c-2.27,0-3.06-.57-3.76-2.73-.22,0-.45.07-.67.14-1.28.46-2.57.89-3.84,1.39a3.17,3.17,0,0,1-4.56-2.75c-.15-1.52-.29-3-.48-4.57a9.19,9.19,0,0,1,4.5-9.65.81.81,0,0,0,.38-.52C28.92,26.31,28.91,24.87,28.91,23.33ZM3.66,67.21v6a4.57,4.57,0,0,0,0,.64,2.63,2.63,0,0,0,2.1,2.26A6.11,6.11,0,0,0,7,76.15H76.21A2.71,2.71,0,0,0,79,73.28c0-1.84,0-3.69,0-5.53a3.33,3.33,0,0,0-.07-.54H51c-.49,2-1.44,2.89-3.14,2.9q-6.54,0-13.07,0a3,3,0,0,1-3-2.47c0-.14-.08-.27-.13-.43Zm51.27-25c.16-1.82.33-3.58.48-5.34a5.61,5.61,0,0,0-3.6-6,2,2,0,0,1-1.37-2.09c0-3.25,0-6.51,0-9.76a13.64,13.64,0,0,0-2.89-8.68c-1.67-2.1-3.47-4.1-5.23-6.12a1.3,1.3,0,0,0-2.15,0C38.6,6.06,37,7.87,35.46,9.73a12.93,12.93,0,0,0-3.2,7.9c-.13,3.61-.11,7.23-.07,10.84A2.35,2.35,0,0,1,30.6,31a5.62,5.62,0,0,0-3.4,5.78c.08,1.12.2,2.24.3,3.36.07.7.13,1.4.2,2.15l.42-.17a28.59,28.59,0,0,1,6.64-2,1.62,1.62,0,0,1,2.08,1.71c0,.4,0,.8,0,1.24h8.94c0-.44,0-.84,0-1.24a1.66,1.66,0,0,1,2.12-1.69c1.53.37,3.06.78,4.57,1.23C53.28,41.55,54.07,41.91,54.93,42.24Z"/><path class="cls-2" d="M28.91,23.33c0,1.54,0,3,0,4.41a.81.81,0,0,1-.38.52A9.19,9.19,0,0,0,24,37.91c.19,1.52.33,3.05.48,4.57a3.17,3.17,0,0,0,4.56,2.75c1.27-.5,2.56-.93,3.84-1.39.22-.07.45-.09.67-.14.7,2.16,1.49,2.72,3.76,2.73h8.33c2.08,0,2.94-.64,3.56-2.68a2.34,2.34,0,0,1,.52.08c1.37.48,2.76.93,4.11,1.47a3.09,3.09,0,0,0,4.45-2.63c.2-1.88.44-3.75.57-5.64a8.83,8.83,0,0,0-4.37-8.53,1.05,1.05,0,0,1-.6-1.07c0-1.31,0-2.62,0-4H69.83c2.15,0,3.27,1.12,3.27,3.28V63.23c0,.24,0,.47,0,.77H50.56c-2,0-2.6.52-2.7,2.54a1.57,1.57,0,0,1,0,.32H35v-.75A2,2,0,0,0,32.9,64H9.69v-.82c0-12.18,0-24.36,0-36.55A3.18,3.18,0,0,1,13,23.3c5,.09,10,0,15,0Zm10.77,30c0,1.05,0,2.11,0,3.16a1.62,1.62,0,1,0,3.24,0c0-2.08,0-4.17,0-6.25a1.58,1.58,0,0,0-1.63-1.7,1.53,1.53,0,0,0-1.61,1.69C39.67,51.31,39.68,52.34,39.68,53.37ZM36.57,52c0-.58,0-1.15,0-1.72a1.64,1.64,0,0,0-3.27-.08c0,1.17,0,2.34,0,3.51A1.57,1.57,0,0,0,35,55.27a1.6,1.6,0,0,0,1.61-1.59C36.59,53.13,36.57,52.58,36.57,52Zm9.48-.13v1.79a1.66,1.66,0,0,0,1.56,1.58,1.57,1.57,0,0,0,1.7-1.49c.06-1.19.06-2.39,0-3.58a1.63,1.63,0,0,0-1.67-1.55,1.6,1.6,0,0,0-1.6,1.67C46,50.84,46.05,51.37,46.05,51.9Z"/><path class="cls-2" d="M3.66,67.21h28c.05.16.1.29.13.43a3,3,0,0,0,3,2.47q6.54,0,13.07,0c1.7,0,2.65-.93,3.14-2.9H78.89a3.33,3.33,0,0,1,.07.54c0,1.84,0,3.69,0,5.53a2.71,2.71,0,0,1-2.75,2.87H7a6.11,6.11,0,0,1-1.21-.09,2.63,2.63,0,0,1-2.1-2.26,4.57,4.57,0,0,1,0-.64Z"/><path class="cls-2" d="M54.93,42.24c-.86-.33-1.65-.69-2.46-.93-1.51-.45-3-.86-4.57-1.23a1.66,1.66,0,0,0-2.12,1.69c0,.4,0,.8,0,1.24H36.84c0-.44,0-.84,0-1.24a1.62,1.62,0,0,0-2.08-1.71,28.59,28.59,0,0,0-6.64,2l-.42.17c-.07-.75-.13-1.45-.2-2.15-.1-1.12-.22-2.24-.3-3.36A5.62,5.62,0,0,1,30.6,31a2.35,2.35,0,0,0,1.59-2.48c0-3.61-.06-7.23.07-10.84a12.93,12.93,0,0,1,3.2-7.9C37,7.87,38.6,6.06,40.18,4.23a1.3,1.3,0,0,1,2.15,0c1.76,2,3.56,4,5.23,6.12A13.64,13.64,0,0,1,50.45,19c0,3.25,0,6.51,0,9.76a2,2,0,0,0,1.37,2.09,5.61,5.61,0,0,1,3.6,6C55.26,38.66,55.09,40.42,54.93,42.24ZM41.29,29.85a5.93,5.93,0,1,0-5.91-5.93A5.9,5.9,0,0,0,41.29,29.85Z"/><path class="cls-1" d="M39.68,53.37c0-1,0-2.06,0-3.09a1.53,1.53,0,0,1,1.61-1.69,1.58,1.58,0,0,1,1.63,1.7c0,2.08,0,4.17,0,6.25a1.62,1.62,0,1,1-3.24,0C39.67,55.48,39.68,54.42,39.68,53.37Z"/><path class="cls-1" d="M36.57,52c0,.55,0,1.1,0,1.65A1.6,1.6,0,0,1,35,55.27a1.57,1.57,0,0,1-1.66-1.53c0-1.17,0-2.34,0-3.51a1.64,1.64,0,0,1,3.27.08C36.59,50.88,36.57,51.45,36.57,52Z"/><path class="cls-1" d="M46.05,51.9c0-.53,0-1.06,0-1.58a1.6,1.6,0,0,1,1.6-1.67,1.63,1.63,0,0,1,1.67,1.55c0,1.19,0,2.39,0,3.58a1.57,1.57,0,0,1-1.7,1.49,1.66,1.66,0,0,1-1.56-1.58V51.9Z"/><path class="cls-1" d="M41.29,29.85a5.93,5.93,0,1,1,6-5.89A5.9,5.9,0,0,1,41.29,29.85ZM44,23.93a2.68,2.68,0,1,0-2.65,2.67A2.7,2.7,0,0,0,44,23.93Z"/><path class="cls-2" d="M44,23.93a2.68,2.68,0,1,1-2.62-2.68A2.7,2.7,0,0,1,44,23.93Z"/></g></g></svg>