<svg xmlns="http://www.w3.org/2000/svg" viewBox="0 0 75.75 75.75"><defs><style>.cls-1{fill:#fff;}</style></defs><title>Asset 2</title><g id="Layer_2" data-name="Layer 2"><g id="Layer_4" data-name="Layer 4"><path class="cls-1" d="M37.61,75.8H.11V.05H75.86V75.8H38.35a2.32,2.32,0,0,1,.54-.19,8.18,8.18,0,0,0,7-5.79c.2-.57.43-.86,1.07-.84a5.5,5.5,0,0,0,5.35-6.45,1.13,1.13,0,0,1,.45-1.17,5.56,5.56,0,0,0-.2-8.63.94.94,0,0,1-.33-1.35,19.69,19.69,0,0,1,4.27-6.49,25.55,25.55,0,0,0,7.47-16A24.33,24.33,0,0,0,61.36,15C56.11,5.14,47.9.16,36.69.39A23.45,23.45,0,0,0,24,4.37C15.62,9.92,11.5,17.73,11.81,27.81a24.83,24.83,0,0,0,1.61,7.9,28,28,0,0,0,6.45,9.78,17.55,17.55,0,0,1,3.79,6.1c.14.36.25.67-.17,1a5.64,5.64,0,0,0-.28,9,1.24,1.24,0,0,1,.3.79,18.1,18.1,0,0,0,.09,2.34A5.37,5.37,0,0,0,28.73,69,1.16,1.16,0,0,1,30,69.9a8.17,8.17,0,0,0,6.16,5.58C36.61,75.6,37.12,75.69,37.61,75.8Z" transform="translate(-0.11 -0.05)"/><path d="M37.61,75.8c-.49-.11-1-.2-1.49-.32A8.17,8.17,0,0,1,30,69.9,1.16,1.16,0,0,0,28.73,69a5.37,5.37,0,0,1-5.13-4.3,18.1,18.1,0,0,1-.09-2.34,1.24,1.24,0,0,0-.3-.79,5.64,5.64,0,0,1,.28-9c.42-.29.31-.6.17-1a17.55,17.55,0,0,0-3.79-6.1,28,28,0,0,1-6.45-9.78,24.83,24.83,0,0,1-1.61-7.9C11.5,17.73,15.62,9.92,24,4.37a23.45,23.45,0,0,1,12.71-4C47.9.16,56.11,5.14,61.36,15a24.33,24.33,0,0,1,2.58,14,25.55,25.55,0,0,1-7.47,16,19.69,19.69,0,0,0-4.27,6.49.94.94,0,0,0,.33,1.35,5.56,5.56,0,0,1,.2,8.63,1.13,1.13,0,0,0-.45,1.17A5.5,5.5,0,0,1,46.93,69c-.64,0-.87.27-1.07.84a8.18,8.18,0,0,1-7,5.79,2.32,2.32,0,0,0-.54.19Zm7-30.53c0,1.58,0,3.15,0,4.73,0,2.39-.43,2,2.12,2.08a.84.84,0,0,0,.94-.71,24.33,24.33,0,0,1,5.85-9.61A21.16,21.16,0,0,0,59.3,21.94,21.89,21.89,0,1,0,22.48,42a23.24,23.24,0,0,1,5.29,8.35c.64,1.7.64,1.71,2.43,1.69.92,0,1,0,1-1v-11c0-1.57,0-1.57-1.55-1.6A5.8,5.8,0,0,1,28.6,27a5.75,5.75,0,0,1,6.59,4.35,11.42,11.42,0,0,1,.16,2.19c0,.5.19.71.7.69.94,0,1.87,0,2.81,0,1.7,0,1.55.29,1.59-1.56A5.62,5.62,0,0,1,46.38,27a5.43,5.43,0,0,1,4.93,3.08A5.41,5.41,0,0,1,51,35.86a5.77,5.77,0,0,1-5,2.66c-1.51,0-1.4-.25-1.4,1.44S44.65,43.5,44.65,45.27Zm-9.3,0c0,2,0,4,0,6.05,0,.55.17.81.76.8q1.77,0,3.54,0c.57,0,.8-.22.79-.79V39.2c0-.49-.17-.7-.69-.69-1.18,0-2.36.06-3.54,0-.72,0-.87.26-.87.9C35.37,41.35,35.35,43.29,35.35,45.23Zm2.5,13.19h11c1,0,1.52-.42,1.53-1.28s-.18-.88-1.4-.88H26.76c-.22,0-.48-.07-.65,0s-.6.37-.65.61c-.19.93.36,1.51,1.39,1.51Zm0,4.19c-3.05,0-6.1,0-9.15,0-.32,0-.86.17-.9.36a1.44,1.44,0,0,0,.18,1.2,2.14,2.14,0,0,0,1.34.57c5.66,0,11.32,0,17,0a2.76,2.76,0,0,0,1-.16,1.29,1.29,0,0,0,.75-1.45c-.15-.67-.67-.54-1.12-.54ZM34.31,69.1a3.93,3.93,0,0,0,7.18,0ZM29.86,34.31c.54-.21,1.2.22,1.27-.54A4.74,4.74,0,0,0,31,32.18a1.37,1.37,0,0,0-1.39-1,1.43,1.43,0,0,0-1.42,1,1.36,1.36,0,0,0,.4,1.66A5,5,0,0,0,29.86,34.31Zm15.88-.08c1.29,0,2-.55,2-1.53a1.6,1.6,0,0,0-1.49-1.53c-1,0-1.59.78-1.58,2C44.65,34.23,44.65,34.23,45.74,34.23Z" transform="translate(-0.11 -0.05)"/><path class="cls-1" d="M44.65,45.27c0-1.77,0-3.54,0-5.31s-.11-1.4,1.4-1.44a5.77,5.77,0,0,0,5-2.66,5.41,5.41,0,0,0,.28-5.81A5.43,5.43,0,0,0,46.38,27a5.62,5.62,0,0,0-5.93,5.69c0,1.85.11,1.54-1.59,1.56-.94,0-1.87,0-2.81,0-.51,0-.69-.19-.7-.69a11.42,11.42,0,0,0-.16-2.19A5.75,5.75,0,0,0,28.6,27a5.8,5.8,0,0,0,1,11.52c1.55,0,1.55,0,1.55,1.6v11c0,.92,0,1-1,1-1.79,0-1.79,0-2.43-1.69A23.24,23.24,0,0,0,22.48,42a21.61,21.61,0,0,1-6.3-12.71A21.89,21.89,0,0,1,59.3,21.94a21.16,21.16,0,0,1-5.74,19.82,24.33,24.33,0,0,0-5.85,9.61.84.84,0,0,1-.94.71c-2.55,0-2.08.31-2.12-2.08C44.63,48.42,44.65,46.85,44.65,45.27Z" transform="translate(-0.11 -0.05)"/><path class="cls-1" d="M35.35,45.23c0-1.94,0-3.88,0-5.82,0-.64.15-.94.87-.9,1.18.06,2.36,0,3.54,0,.52,0,.69.2.69.69V51.29c0,.57-.22.8-.79.79q-1.77,0-3.54,0c-.59,0-.77-.25-.76-.8C35.36,49.26,35.35,47.25,35.35,45.23Z" transform="translate(-0.11 -0.05)"/><path class="cls-1" d="M37.85,58.42h-11c-1,0-1.58-.58-1.39-1.51.05-.24.39-.47.65-.61s.43,0,.65,0H49c1.22,0,1.41.12,1.4.88s-.5,1.28-1.53,1.28Z" transform="translate(-0.11 -0.05)"/><path class="cls-1" d="M37.88,62.61H47c.45,0,1-.13,1.12.54a1.29,1.29,0,0,1-.75,1.45,2.76,2.76,0,0,1-1,.16c-5.65,0-11.31,0-17,0A2.14,2.14,0,0,1,28,64.19a1.44,1.44,0,0,1-.18-1.2c0-.19.58-.36.9-.36C31.78,62.6,34.83,62.61,37.88,62.61Z" transform="translate(-0.11 -0.05)"/><path class="cls-1" d="M34.31,69.1h7.18a3.93,3.93,0,0,1-7.18,0Z" transform="translate(-0.11 -0.05)"/><path class="cls-1" d="M29.86,34.31a5,5,0,0,1-1.27-.5,1.36,1.36,0,0,1-.4-1.66,1.43,1.43,0,0,1,1.42-1,1.37,1.37,0,0,1,1.39,1,4.74,4.74,0,0,1,.13,1.59C31.06,34.53,30.4,34.1,29.86,34.31Z" transform="translate(-0.11 -0.05)"/><path class="cls-1" d="M45.74,34.23c-1.09,0-1.09,0-1.09-1,0-1.27.62-2.08,1.58-2a1.6,1.6,0,0,1,1.49,1.53C47.73,33.68,47,34.23,45.74,34.23Z" transform="translate(-0.11 -0.05)"/></g></g></svg>