<svg xmlns="http://www.w3.org/2000/svg" viewBox="0 0 75.61 78.61"><defs><style>.cls-1,.cls-2{stroke:#000;stroke-miterlimit:10;stroke-width:0.5px;}.cls-2{fill:#fff;}</style></defs><title>Asset 5</title><g id="Layer_2" data-name="Layer 2"><g id="Layer_4" data-name="Layer 4"><path class="cls-1" d="M50.87,64.22c-.33.52-.64,1.12-1,1.65-1.74,2.27-3.5,4.52-5.25,6.79-1.28,1.65-2.53,3.32-3.81,5a1.58,1.58,0,0,1-2.82-.32c-.79-1.64-1.56-3.28-2.37-4.9-1.17-2.34-2.37-4.67-3.55-7-1.32-2.61-2.64-5.22-3.94-7.84-.33-.66-1-.62-1.52-.8-1.53-.52-3.08-.95-4.63-1.4-1.33-.38-2.67-.73-4-1.12-1.84-.53-3.66-1.09-5.5-1.62s-3.67-1-5.5-1.58-3.85-1.16-5.76-1.76A1.27,1.27,0,0,1,.26,48,2.19,2.19,0,0,1,1,46.47c4.54-3,9.12-5.86,13.69-8.77l9.62-6.14c3.38-2.15,6.75-4.32,10.12-6.47,2.62-1.67,5.25-3.33,7.87-5l8.09-5.24q2.76-1.78,5.54-3.55l7.74-4.91,6.12-3.89c1-.61,1.89-1.26,2.85-1.85s2-.48,2.52.55a2.52,2.52,0,0,1,.15,1.23C75.26,4.29,75.13,6.17,75,8s-.23,4-.35,6-.2,3.71-.31,5.56c-.14,2.33-.29,4.65-.44,7l-.39,6.32L73.23,38c-.12,2.1-.25,4.2-.37,6.3l-.36,6.17c-.1,1.8-.2,3.6-.31,5.41Q72,59.42,71.76,63c-.13,2-.3,4.05-.39,6.08A1.6,1.6,0,0,1,69,70.68c-2.8-1-5.6-1.91-8.4-2.89-2.56-.9-5.12-1.82-7.67-2.74C52.35,64.82,51.74,64.56,50.87,64.22Zm-8.26-6.31,25.68,9.14Q70,37.82,71.74,8.75c-.83,1.16-1.57,2.35-2.27,3.56-.84,1.43-1.64,2.89-2.49,4.33-1.28,2.19-2.59,4.36-3.89,6.54-1.4,2.38-2.79,4.76-4.2,7.14C58,31.88,57,33.43,56.09,35s-1.77,3.12-2.67,4.67c-1.2,2-2.43,4-3.62,6.06-.89,1.5-1.74,3-2.62,4.53Zm23-48.69-.12-.13L5.7,47.3,28.4,54c1.86-2.19,3.73-4.36,5.56-6.55q3.59-4.3,7.12-8.65c1.26-1.54,2.49-3.11,3.76-4.64,2.67-3.18,5.37-6.34,8-9.52,1.63-1.95,3.23-3.92,4.84-5.88l6-7.25ZM38,70.18l.11,0c0-.78,0-1.56.08-2.34q.16-3.72.34-7.44a6.9,6.9,0,0,1,.21-2.2,31.05,31.05,0,0,1,1.9-3.36c1.31-2.2,2.63-4.39,4-6.59,1-1.7,2-3.41,3-5.12.83-1.42,1.61-2.87,2.45-4.28S51.85,36,52.7,34.5s1.73-3,2.61-4.53,1.67-2.77,2.5-4.16c.65-1.08,1.31-2.17,1.94-3.26s1.14-2,1.7-3a2.31,2.31,0,0,0-.85.63C59,22.09,57.42,24,55.84,25.91c-1.33,1.62-2.62,3.26-4,4.87-1.83,2.2-3.7,4.36-5.54,6.55-1.59,1.91-3.17,3.83-4.76,5.75l-5.74,7c-1.5,1.82-3,3.62-4.53,5.43a.85.85,0,0,0-.14,1.13c1.07,2,2.07,4,3.08,6C35.52,65.16,36.75,67.67,38,70.18Zm9.87-7L41.74,61c-.15,3.55-.3,6.94-.45,10.38Z"/><path class="cls-2" d="M42.61,57.91l4.57-7.66c.88-1.5,1.73-3,2.62-4.53,1.19-2,2.42-4,3.62-6.06.9-1.55,1.76-3.12,2.67-4.67s1.87-3.11,2.8-4.67c1.41-2.38,2.8-4.76,4.2-7.14C64.39,21,65.7,18.83,67,16.64c.85-1.44,1.65-2.9,2.49-4.33.7-1.21,1.44-2.4,2.27-3.56Q70,37.87,68.29,67.05Z"/><path class="cls-2" d="M65.57,9.22,63.7,11.46l-6,7.25c-1.61,2-3.21,3.93-4.84,5.88-2.67,3.18-5.37,6.34-8,9.52-1.27,1.53-2.5,3.1-3.76,4.64Q37.54,43.09,34,47.4c-1.83,2.19-3.7,4.36-5.56,6.55L5.7,47.3,65.45,9.09Z"/><path class="cls-2" d="M38,70.18c-1.25-2.51-2.48-5-3.74-7.52-1-2-2-4-3.08-6a.85.85,0,0,1,.14-1.13c1.51-1.81,3-3.61,4.53-5.43l5.74-7c1.59-1.92,3.17-3.84,4.76-5.75,1.84-2.19,3.71-4.35,5.54-6.55,1.33-1.61,2.62-3.25,4-4.87C57.42,24,59,22.09,60.6,20.18a2.31,2.31,0,0,1,.85-.63c-.56,1-1.12,2-1.7,3s-1.29,2.18-1.94,3.26C57,27.2,56.13,28.57,55.31,30s-1.72,3-2.61,4.53-1.76,2.88-2.62,4.33-1.62,2.86-2.45,4.28c-1,1.71-2,3.42-3,5.12-1.32,2.2-2.64,4.39-4,6.59a31.05,31.05,0,0,0-1.9,3.36,6.9,6.9,0,0,0-.21,2.2q-.18,3.72-.34,7.44c0,.78,0,1.56-.08,2.34Z"/><path class="cls-2" d="M47.87,63.17l-6.58,8.25c.15-3.44.3-6.83.45-10.38Z"/></g></g></svg>