<svg xmlns="http://www.w3.org/2000/svg" viewBox="0 0 88.58 77.14"><defs><style>.cls-1,.cls-2{stroke:#000;stroke-miterlimit:10;}.cls-2{fill:#fff;}</style></defs><title>Asset 4</title><g id="Layer_2" data-name="Layer 2"><g id="Layer_4" data-name="Layer 4"><path class="cls-1" d="M44.29,58.53c-3.48,0-7,0-10.45,0a4.71,4.71,0,0,1-5-5.06,15.41,15.41,0,0,1,30.5-2.82,17.39,17.39,0,0,1,.32,2.89,4.67,4.67,0,0,1-4.94,5C51.26,58.54,47.78,58.53,44.29,58.53Zm0-2.92H54.76a1.78,1.78,0,0,0,2-2.06,15.49,15.49,0,0,0-.33-2.64,12.49,12.49,0,0,0-24.65,2.51c0,1.53.62,2.19,2.13,2.2Z"/><path class="cls-1" d="M15.86,76.6H5.73c-3.36,0-5.32-2-5.23-5.39a15.42,15.42,0,0,1,30.83.35,4.72,4.72,0,0,1-4.93,5C22.89,76.62,19.38,76.6,15.86,76.6Zm0-2.92h4.46c2,0,4.05,0,6.08,0a1.8,1.8,0,0,0,2-2,12.71,12.71,0,0,0-.16-1.85A12.5,12.5,0,0,0,3.42,71.29c0,1.7.6,2.38,2.29,2.39Z"/><path class="cls-1" d="M72.65,76.6c-3.24,0-6.49-.12-9.73,0s-6.11-1.85-5.65-6.27a15.44,15.44,0,0,1,30.81,1.15,4.75,4.75,0,0,1-5,5.08C79.62,76.62,76.13,76.6,72.65,76.6Zm0-2.92c3.46,0,6.92,0,10.38,0,1.41,0,2.15-.72,2.09-2.09A13.9,13.9,0,0,0,84.82,69a12.49,12.49,0,0,0-24.65,2.36c0,1.64.61,2.3,2.29,2.3Z"/><path class="cls-1" d="M16,34.43A9.67,9.67,0,1,1,6.24,44,9.67,9.67,0,0,1,16,34.43ZM9.16,44.12a6.76,6.76,0,1,0,6.73-6.78A6.79,6.79,0,0,0,9.16,44.12Z"/><path class="cls-1" d="M44.39,35.71A9.68,9.68,0,1,1,54,25.91,9.72,9.72,0,0,1,44.39,35.71Zm-.11-2.92A6.76,6.76,0,1,0,37.52,26,6.79,6.79,0,0,0,44.28,32.79Z"/><path class="cls-1" d="M72.75,34.42A9.68,9.68,0,1,1,63,43.93,9.67,9.67,0,0,1,72.75,34.42Zm0,2.92A6.76,6.76,0,1,0,79.4,44.2,6.78,6.78,0,0,0,72.77,37.34Z"/><path class="cls-1" d="M23.38,19a4.93,4.93,0,0,1-1,1.13,1.32,1.32,0,0,1-1.69-.31l-4.52-4.51c-.29-.29-.59-.56-.85-.87a1.45,1.45,0,0,1,2-2c1.86,1.81,3.68,3.64,5.49,5.49A4.41,4.41,0,0,1,23.38,19Z"/><path class="cls-1" d="M66.64,20.46a5.48,5.48,0,0,1-1.16-1.08,1.31,1.31,0,0,1,.33-1.62l4.29-4.29c.33-.32.64-.66,1-1a1.48,1.48,0,0,1,2.1,0,1.39,1.39,0,0,1,0,2c-1.77,1.81-3.57,3.6-5.38,5.37A4.5,4.5,0,0,1,66.64,20.46Z"/><path class="cls-1" d="M42.83,5.78c0-1.21,0-2.43,0-3.64a1.47,1.47,0,1,1,2.91,0q0,3.6,0,7.2a1.46,1.46,0,1,1-2.91,0C42.82,8.15,42.83,7,42.83,5.78Z"/><path class="cls-1" d="M29.54,3.5c.22.2.8.49,1,1,1,2.29,2,4.62,2.9,6.94a1.39,1.39,0,0,1-.77,1.88,1.38,1.38,0,0,1-1.88-.74c-1-2.36-2-4.72-2.94-7.1C27.48,4.48,28.19,3.52,29.54,3.5Z"/><path class="cls-1" d="M60.84,5.06a6.92,6.92,0,0,1-.23.69c-.89,2.17-1.79,4.33-2.69,6.5-.41,1-1.15,1.36-2,1.05a1.49,1.49,0,0,1-.75-2.15Q56.58,7.82,58,4.5a1.45,1.45,0,0,1,1.74-1A1.53,1.53,0,0,1,60.84,5.06Z"/><path class="cls-2" d="M44.3,55.61H33.92c-1.51,0-2.15-.67-2.13-2.2A12.49,12.49,0,0,1,56.44,50.9a15.49,15.49,0,0,1,.33,2.64,1.78,1.78,0,0,1-2,2.06Z"/><path class="cls-2" d="M15.85,73.68H5.71C4,73.67,3.37,73,3.42,71.29a12.5,12.5,0,0,1,24.82-1.47,12.71,12.71,0,0,1,.16,1.85,1.8,1.8,0,0,1-2,2c-2,0-4.06,0-6.08,0Z"/><path class="cls-2" d="M72.67,73.68H62.46c-1.68,0-2.33-.66-2.29-2.3A12.49,12.49,0,0,1,84.82,69a13.9,13.9,0,0,1,.32,2.56c.06,1.37-.68,2.09-2.09,2.09C79.59,73.69,76.13,73.68,72.67,73.68Z"/><path class="cls-2" d="M9.16,44.12A6.76,6.76,0,1,1,16,50.85,6.76,6.76,0,0,1,9.16,44.12Z"/><path class="cls-2" d="M44.28,32.79A6.76,6.76,0,1,1,51.05,26,6.78,6.78,0,0,1,44.28,32.79Z"/><path class="cls-2" d="M72.77,37.34A6.76,6.76,0,1,1,65.89,44,6.74,6.74,0,0,1,72.77,37.34Z"/></g></g></svg>