<svg xmlns="http://www.w3.org/2000/svg" viewBox="0 0 1307.74 651.4"><defs><style>.cls-1{fill:#ffcb00;}.cls-2{fill:#920177;}.cls-3{fill:#e4007c;}</style></defs><title>Asset 1</title><g id="Layer_2" data-name="Layer 2"><g id="Layer_1-2" data-name="Layer 1"><path class="cls-1" d="M1307.44,0c-41.2,4.74-85.63,15-127,24.6-77.29,17.9-208.64,45.3-267.08,143.9C865,250.17,913.46,301,866.6,372.11c-54.77,83.14-184.13,102-440.64,136.41C234.88,534.13,174.2,524.89,89.57,578.3c-25,15.8-60.22,42.17-89.57,72.6H1250.4c20.34-22.85,39.36-46.52,57-70.7Z"/><path class="cls-2" d="M1307.74,366c-9.14-4.36-17.88-6.45-25.88-5.91-45.95,3.11-64.35,92.58-126.69,92.14-47.68-.35-67.3-52.91-106.54-43.19-24.62,6.09-23.35,28.38-72,80.62-32.34,34.74-48.74,52.36-74.87,57.58-31.11,6.23-44.59-11.42-95-25.91-21.24-6.1-81-23.27-129.58-8.64C615.62,531.25,576.7,599.45,564.9,648c-.27,1.12-.51,2.25-.76,3.37h743.6Z"/><path class="cls-3" d="M1307.74,396.29a45.49,45.49,0,0,0-16.15-2.09c-45.95,3.11-64.35,92.59-126.69,92.14-47.68-.34-67.3-52.9-106.54-43.19-24.62,6.09-23.35,28.38-72,80.62-32.34,34.74-48.74,52.36-74.87,57.59-31.11,6.23-44.59-11.43-95-25.91-21.24-6.11-81-23.27-129.57-8.64-49.35,14.86-84.14,61.6-102.09,104.59h722.9Z"/></g></g></svg>