<svg xmlns="http://www.w3.org/2000/svg" viewBox="0 0 132.19 115.06"><defs><style>.cls-1,.cls-2{stroke:#000;stroke-miterlimit:10;}.cls-2{fill:#fff;}</style></defs><title>Asset 6</title><g id="Layer_2" data-name="Layer 2"><g id="Layer_4" data-name="Layer 4"><path class="cls-1" d="M66.11,87.43c-5.22,0-10.44,0-15.66,0-4.54,0-7.5-3-7.44-7.58a23.08,23.08,0,0,1,45.68-4.23,25.16,25.16,0,0,1,.47,4.33c.1,4.44-2.92,7.47-7.39,7.48C76.55,87.44,71.33,87.43,66.11,87.43Zm0-4.38c5.23,0,10.45,0,15.67,0,2,0,3.1-1.06,3-3.09a23,23,0,0,0-.49-4,18.72,18.72,0,0,0-36.92,3.77c0,2.29.92,3.29,3.19,3.29C55.75,83.06,60.93,83.05,66.11,83.05Z"/><path class="cls-1" d="M23.52,114.5c-5.06,0-10.12,0-15.18,0s-8-3-7.84-8.08a23.1,23.1,0,0,1,46.18.53,7.07,7.07,0,0,1-7.38,7.54C34,114.53,28.78,114.5,23.52,114.5Zm0-4.37h6.68c3,0,6.08,0,9.11,0,2,0,3-1.09,3-3a21.58,21.58,0,0,0-.24-2.78,18.72,18.72,0,0,0-37.18,2.21c-.08,2.55.89,3.57,3.43,3.57Z"/><path class="cls-1" d="M108.58,114.5c-4.86,0-9.72-.17-14.57,0-5,.23-9.16-2.78-8.47-9.4a23.13,23.13,0,0,1,46.15,1.73,7.11,7.11,0,0,1-7.45,7.61C119,114.53,113.8,114.5,108.58,114.5Zm0-4.38c5.18,0,10.36,0,15.54,0,2.12,0,3.23-1.09,3.14-3.13a21.45,21.45,0,0,0-.48-3.84c-1.95-8.87-10.68-15.32-19.53-14.47-9.77.93-17.21,8.62-17.4,18,0,2.46.91,3.44,3.42,3.44Z"/><path class="cls-1" d="M23.74,51.32A14.49,14.49,0,1,1,9.1,65.69,14.52,14.52,0,0,1,23.74,51.32ZM13.48,65.84A10.13,10.13,0,1,0,23.55,55.69,10.17,10.17,0,0,0,13.48,65.84Z"/><path class="cls-1" d="M66.25,53.25A14.5,14.5,0,1,1,80.6,38.57,14.54,14.54,0,0,1,66.25,53.25Zm-.17-4.38A10.13,10.13,0,1,0,56,38.74,10.17,10.17,0,0,0,66.08,48.87Z"/><path class="cls-1" d="M108.74,51.32A14.49,14.49,0,1,1,94.08,65.56,14.49,14.49,0,0,1,108.74,51.32Zm0,4.37A10.12,10.12,0,1,0,118.7,66,10.15,10.15,0,0,0,108.76,55.69Z"/><path class="cls-1" d="M34.78,28.22a7.58,7.58,0,0,1-1.48,1.69,2,2,0,0,1-2.54-.46Q27.37,26.08,24,22.68a17.34,17.34,0,0,1-1.27-1.3,2.16,2.16,0,0,1,3.07-3c2.78,2.7,5.51,5.45,8.22,8.22A6.77,6.77,0,0,1,34.78,28.22Z"/><path class="cls-1" d="M99.58,30.41a8,8,0,0,1-1.74-1.63,1.94,1.94,0,0,1,.5-2.42l6.43-6.43c.48-.48,1-1,1.45-1.45a2.22,2.22,0,0,1,3.16,0,2.09,2.09,0,0,1,0,3q-4,4.07-8.06,8A7.2,7.2,0,0,1,99.58,30.41Z"/><path class="cls-1" d="M63.91,8.41c0-1.82,0-3.64,0-5.45a2.2,2.2,0,1,1,4.37,0q0,5.4,0,10.79a2.2,2.2,0,1,1-4.37,0C63.9,12,63.91,10.19,63.91,8.41Z"/><path class="cls-1" d="M44,5c.33.29,1.2.73,1.51,1.42,1.53,3.43,2.93,6.92,4.33,10.4a2.09,2.09,0,0,1-1.14,2.81,2.06,2.06,0,0,1-2.83-1.11q-2.26-5.29-4.4-10.64C40.91,6.47,42,5,44,5Z"/><path class="cls-1" d="M90.89,7.33c-.09.27-.18.66-.34,1q-2,4.88-4,9.73c-.61,1.46-1.72,2.05-2.93,1.59s-1.72-1.74-1.12-3.22q2.06-5,4.13-10a2.16,2.16,0,0,1,2.62-1.44A2.26,2.26,0,0,1,90.89,7.33Z"/><path class="cls-2" d="M66.11,83.05c-5.18,0-10.36,0-15.54,0-2.27,0-3.22-1-3.19-3.29A18.72,18.72,0,0,1,84.3,76a23,23,0,0,1,.49,4c.09,2-1,3.08-3,3.09C76.56,83.06,71.34,83.05,66.11,83.05Z"/><path class="cls-2" d="M23.49,110.13H8.31c-2.54,0-3.51-1-3.43-3.57a18.72,18.72,0,0,1,37.18-2.21,21.58,21.58,0,0,1,.24,2.78c0,1.91-1,3-3,3-3,0-6.07,0-9.11,0Z"/><path class="cls-2" d="M108.62,110.13H93.31c-2.51,0-3.47-1-3.42-3.44.19-9.38,7.63-17.07,17.4-18,8.85-.85,17.58,5.6,19.53,14.47a21.45,21.45,0,0,1,.48,3.84c.09,2-1,3.12-3.14,3.13C119,110.14,113.8,110.12,108.62,110.13Z"/><path class="cls-2" d="M13.48,65.84A10.13,10.13,0,1,1,23.65,75.93,10.11,10.11,0,0,1,13.48,65.84Z"/><path class="cls-2" d="M66.08,48.87A10.13,10.13,0,1,1,76.23,38.76,10.17,10.17,0,0,1,66.08,48.87Z"/><path class="cls-2" d="M108.76,55.69a10.12,10.12,0,0,1-.34,20.24,10.12,10.12,0,1,1,.34-20.24Z"/></g></g></svg>