<svg xmlns="http://www.w3.org/2000/svg" viewBox="0 0 98.28 111.02"><defs><style>.cls-1{fill:none;stroke:#000;stroke-miterlimit:10;stroke-width:6px;}</style></defs><title>Asset 7</title><g id="Layer_2" data-name="Layer 2"><g id="Layer_4" data-name="Layer 4"><path class="cls-1" d="M49.2,108q-18.87,0-37.74,0c-6.2,0-8.58-2.16-8.46-7.59.48-20.67,18.82-37.64,42.92-39.69,21.82-1.86,43.36,12.36,48.17,31.9a44.18,44.18,0,0,1,1.18,8.47c.21,4.51-2.51,6.88-7.73,6.9C74.76,108,62,108,49.2,108Z"/><path class="cls-1" d="M49.54,3c13.83.25,24.87,10.46,24.52,22.66C73.71,38,62.37,47.85,48.7,47.62S23.87,37.09,24.13,24.91,35.84,2.76,49.54,3Z"/></g></g></svg>